<svg width="197" height="197" viewBox="0 0 197 197" fill="none" xmlns="http://www.w3.org/2000/svg">
<path d="M85.5147 1L85.538 2.50177L87.5043 17.2416L67.1583 22.6929L61.4928 8.94578L60.761 7.6328L38.5675 20.4466L39.3375 21.7362L48.4117 33.5171L33.5171 48.4117L21.7363 39.3375L20.4466 38.5675L7.6328 60.761L8.94579 61.4928L22.6929 67.1583L17.2416 87.5043L2.50177 85.538L1 85.5147V111.142L2.50177 111.119L17.2416 109.151L22.6929 129.499L8.94579 135.164L7.6328 135.896L20.4466 158.089L21.7363 157.317L33.5171 148.245L48.4117 163.14L39.3375 174.921L38.5675 176.21L60.761 189.022L61.4928 187.711L67.1583 173.964L87.5043 179.415L85.538 194.155L85.5147 195.655H111.142L111.119 194.155L109.151 179.415L129.499 173.964L135.164 187.711L135.896 189.022L158.089 176.21L157.317 174.921L148.245 163.14L163.14 148.245L174.921 157.317L176.21 158.089L189.024 135.896L187.711 135.164L173.964 129.499L179.415 109.151L194.155 111.119L195.655 111.142V85.5147L194.155 85.538L179.415 87.5043L173.964 67.1583L187.711 61.4928L189.024 60.761L176.21 38.5675L174.921 39.3375L163.14 48.4117L148.245 33.5171L157.317 21.7362L158.089 20.4466L135.896 7.6328L135.164 8.94578L129.499 22.6929L109.151 17.2416L111.119 2.50177L111.142 1H85.5147ZM95.3313 36.5015V82.2375C93.0838 82.6537 90.9481 83.5352 89.0612 84.8253L56.7096 52.4737C67.3509 42.8463 80.9985 37.2023 95.3313 36.5015ZM101.321 36.5015C115.654 37.2023 129.302 42.8463 139.943 52.4737L107.608 84.8083C105.718 83.51 103.576 82.6227 101.321 82.2036V36.5015ZM52.4737 56.7096L84.8274 89.0633C83.5369 90.9494 82.6547 93.0843 82.2375 95.3313H36.4994C37.201 80.9982 42.8458 67.3506 52.4737 56.7096ZM144.179 56.7096C153.806 67.3509 159.45 80.9984 160.151 95.3313H114.449C114.03 93.0765 113.143 90.9347 111.844 89.0442L144.179 56.7096ZM98.3263 87.5085C101.195 87.5086 103.947 88.6484 105.976 90.6771C108.004 92.7058 109.144 95.4573 109.144 98.3263C109.144 101.195 108.004 103.947 105.976 105.976C103.947 108.004 101.195 109.144 98.3263 109.144C95.4573 109.144 92.7059 108.004 90.6771 105.976C88.6484 103.947 87.5087 101.195 87.5085 98.3263C87.5087 95.4573 88.6484 92.7058 90.6771 90.6771C92.7059 88.6484 95.4573 87.5086 98.3263 87.5085ZM36.4994 101.321H82.2375C82.6538 103.569 83.5352 105.705 84.8253 107.591L52.4716 139.945C42.844 129.303 37.1999 115.655 36.4994 101.321ZM114.417 101.321H160.323C159.628 115.699 153.959 129.389 144.285 140.049L111.827 107.591C113.118 105.705 114 103.569 114.417 101.321ZM89.0612 111.827C90.9479 113.118 93.0836 114 95.3313 114.417V160.155C80.9975 159.454 67.3491 153.81 56.7075 144.181L89.0612 111.827ZM107.591 111.827L140.049 144.285C129.39 153.96 115.7 159.631 101.321 160.327V114.417C103.569 114 105.705 113.118 107.591 111.827Z" fill="#C11627" stroke="#E4465C" stroke-width="0.944881"/>
</svg>
